<svg xmlns="http://www.w3.org/2000/svg" viewBox="0 11.720000267028809 403.1000061035156 48.82999801635742" data-asc="0.978" width="403.1000061035156" height="48.82999801635742"><defs/><g fill="#2ec46a"><g transform="translate(0, 0)"><path d="M7.98 34.67L22.75 34.67L22.88 37.27L7.80 37.27L7.98 34.67M10.90 47.75Q10.90 48.27 10.54 48.59Q10.18 48.90 9.38 48.90L1.52 48.90Q0.75 48.90 0.38 48.59Q0 48.27 0 47.75Q0 47.38 0.21 47.11Q0.43 46.85 0.98 46.57L1.80 46.25Q2.55 45.88 2.96 45.27Q3.38 44.67 3.85 43.15L11.85 18.70Q12.18 17.60 12.03 17.11Q11.88 16.63 11.00 16.32Q10.30 16.10 10.03 15.79Q9.75 15.47 9.75 15.02Q9.75 14.50 10.13 14.20Q10.50 13.90 11.30 13.90L23.50 13.90Q24.30 13.90 24.68 14.20Q25.05 14.50 25.05 15.02Q25.05 15.50 24.76 15.80Q24.48 16.10 23.85 16.30Q23.18 16.50 23.05 16.88Q22.93 17.25 23.20 18.10L31.70 43.72Q32.10 44.98 32.55 45.56Q33 46.15 33.83 46.40Q34.55 46.67 34.80 46.98Q35.05 47.27 35.05 47.75Q35.05 48.27 34.67 48.59Q34.30 48.90 33.50 48.90L22.48 48.90Q21.70 48.90 21.32 48.59Q20.95 48.27 20.95 47.75Q20.95 47.30 21.21 47.02Q21.48 46.75 22.02 46.57L23.45 46.27Q24.10 46.07 24.07 45.63Q24.05 45.17 23.75 44.20L14.90 16.90L15.72 16.40L7.15 42.75Q6.83 43.77 6.83 44.44Q6.83 45.10 7.24 45.51Q7.65 45.92 8.50 46.27L9.85 46.60Q10.35 46.80 10.63 47.05Q10.90 47.30 10.90 47.75ZM53.83 60.55Q53.10 60.55 52.78 60.27Q52.45 60 52.45 59.52Q52.45 59.13 52.68 58.86Q52.90 58.60 53.38 58.45L54.70 58.17Q55.18 58.05 55.39 57.69Q55.60 57.33 55.60 56.55L55.60 27.95L58.50 25.50Q59.65 25.02 60.24 24.85Q60.83 24.67 61.25 24.67Q61.90 24.67 62.26 25.00Q62.63 25.32 62.63 26.00L62.63 56.55Q62.63 57.33 62.85 57.69Q63.08 58.05 63.53 58.20L64.50 58.45Q64.98 58.63 65.20 58.89Q65.43 59.15 65.43 59.52Q65.43 60 65.10 60.27Q64.78 60.55 64.05 60.55L53.83 60.55M58.15 42.97Q56.18 46.05 53.60 47.79Q51.03 49.52 47.88 49.52Q44.93 49.52 42.60 48.01Q40.28 46.50 38.94 43.84Q37.60 41.17 37.60 37.72Q37.60 33.72 39.19 30.79Q40.78 27.85 43.50 26.25Q46.23 24.65 49.60 24.65Q52.58 24.65 54.86 26.04Q57.15 27.42 58.65 30.07L56.95 31.52Q55.73 29.47 54.19 28.47Q52.65 27.47 50.88 27.47Q49.18 27.47 47.81 28.49Q46.45 29.50 45.69 31.59Q44.93 33.67 44.93 36.95Q44.93 40 45.68 42Q46.43 44 47.74 44.99Q49.05 45.98 50.73 45.98Q52.55 45.98 54.13 44.88Q55.70 43.77 57.03 41.55L58.15 42.97ZM86.43 45.30L86.43 44.07L86.20 43.97L86.20 30.57Q86.20 29.95 86.01 29.66Q85.83 29.37 85.40 29.30L84.08 29.20Q83.63 29.10 83.43 28.87Q83.23 28.65 83.23 28.30Q83.23 27.90 83.46 27.64Q83.70 27.37 84.38 27.15L89.03 25.45Q89.98 25.10 90.56 24.94Q91.15 24.77 91.65 24.77Q92.43 24.77 92.84 25.21Q93.25 25.65 93.25 26.37L93.25 44.90Q93.25 45.67 93.46 46.04Q93.68 46.40 94.13 46.55L95.08 46.80Q95.55 46.95 95.78 47.21Q96 47.48 96 47.88Q96 48.35 95.68 48.63Q95.35 48.90 94.63 48.90L89.60 48.90Q88.25 48.90 87.34 47.89Q86.43 46.88 86.43 45.30M70.45 41.95L70.45 30.57Q70.45 29.95 70.25 29.66Q70.05 29.37 69.63 29.30L68.30 29.20Q67.85 29.10 67.65 28.87Q67.45 28.65 67.45 28.30Q67.45 27.90 67.70 27.64Q67.95 27.37 68.60 27.15L73.28 25.45Q74.25 25.07 74.83 24.92Q75.40 24.77 75.83 24.77Q76.65 24.77 77.06 25.21Q77.48 25.65 77.48 26.37L77.48 40.92Q77.48 43.13 78.53 44.21Q79.58 45.30 81.38 45.30Q82.48 45.30 83.73 44.76Q84.98 44.23 86.30 43.10L87.30 42.22L88.45 43.40L87.48 44.27Q84.33 47.17 81.98 48.35Q79.63 49.52 77.55 49.52Q74.35 49.52 72.40 47.46Q70.45 45.40 70.45 41.95ZM114.88 45.73L114.88 45.20L114.40 45.10L114.40 30.17Q114.40 28.42 113.51 27.46Q112.63 26.50 111 26.50Q109.53 26.50 108.72 27.12Q107.92 27.75 107.92 28.67L107.92 30.87Q107.92 32.38 106.92 33.19Q105.92 34 104.10 34Q102.55 34 101.75 33.26Q100.95 32.52 100.95 31.25Q100.95 29.67 102.25 28.16Q103.55 26.65 106.08 25.66Q108.60 24.67 112.30 24.67Q116.90 24.67 119.14 26.54Q121.38 28.40 121.38 31.57L121.38 44.57Q121.38 45.27 121.66 45.63Q121.95 45.98 122.47 45.98Q123.03 45.98 123.30 45.71Q123.58 45.45 123.78 45.17Q123.90 45 124.05 44.89Q124.20 44.77 124.42 44.77Q124.72 44.77 124.88 45Q125.03 45.23 125.03 45.60Q125.03 46.45 124.44 47.35Q123.85 48.25 122.69 48.89Q121.53 49.52 119.78 49.52Q117.55 49.52 116.21 48.51Q114.88 47.50 114.88 45.73M99.90 43.67Q99.90 40.55 102.69 38.63Q105.47 36.70 110.47 36.70Q112.10 36.70 113.41 36.97Q114.72 37.25 115.67 37.72L115.13 39.32Q114.28 38.92 113.39 38.70Q112.50 38.47 111.47 38.47Q109.40 38.47 108.24 39.54Q107.08 40.60 107.08 42.47Q107.08 44.35 108.06 45.35Q109.05 46.35 110.63 46.35Q111.97 46.35 113.21 45.74Q114.45 45.13 115.30 44.02L115.85 45.45Q114.47 47.40 112.16 48.46Q109.85 49.52 107.25 49.52Q103.97 49.52 101.94 47.90Q99.90 46.27 99.90 43.67ZM128.93 27.67L127.78 27.32Q127.18 27.12 126.93 26.86Q126.68 26.60 126.68 26.25Q126.68 25.75 127.01 25.49Q127.35 25.22 127.93 25.22L129.45 25.22Q130.05 25.22 130.45 25.00Q130.85 24.77 131.28 24.20L134 20.37Q134.53 19.72 135 19.42Q135.47 19.12 135.95 19.12Q136.47 19.12 136.78 19.45Q137.08 19.77 137.08 20.40L137.08 41.77Q137.08 43.52 137.76 44.45Q138.45 45.38 139.68 45.38Q140.60 45.38 141.11 45.01Q141.63 44.65 141.93 44.17Q142.22 43.70 142.51 43.34Q142.80 42.97 143.25 42.95Q143.63 42.95 143.84 43.20Q144.05 43.45 144.05 44.02Q144.03 45.45 143.11 46.67Q142.20 47.90 140.58 48.66Q138.95 49.42 136.88 49.42Q133.68 49.42 131.86 47.81Q130.05 46.20 130.05 42.95L130.05 29.15Q130.05 28.50 129.79 28.19Q129.53 27.87 128.93 27.67M134.30 27.70L134.30 25.22L142.58 25.22Q143.15 25.22 143.49 25.46Q143.83 25.70 143.83 26.15Q143.83 26.80 143.18 27.25Q142.53 27.70 141.08 27.70L134.30 27.70ZM157.03 26.35L157.03 44.90Q157.03 45.67 157.24 46.04Q157.45 46.40 157.90 46.55L158.85 46.80Q159.33 46.95 159.55 47.21Q159.78 47.48 159.78 47.88Q159.78 48.35 159.45 48.63Q159.13 48.90 158.40 48.90L148.55 48.90Q147.85 48.90 147.53 48.63Q147.20 48.35 147.20 47.88Q147.20 47.50 147.43 47.24Q147.65 46.98 148.13 46.80L149.10 46.55Q149.55 46.38 149.76 46.02Q149.98 45.67 149.98 44.90L149.98 30.57Q149.98 29.92 149.79 29.65Q149.60 29.37 149.18 29.30L147.85 29.20Q147.40 29.10 147.20 28.87Q147.00 28.65 147.00 28.30Q147.00 27.87 147.24 27.62Q147.48 27.37 148.15 27.12L152.80 25.42Q153.78 25.07 154.36 24.92Q154.95 24.77 155.35 24.77Q156.20 24.77 156.61 25.21Q157.03 25.65 157.03 26.35M152.95 20.95Q150.95 20.95 149.74 19.91Q148.53 18.87 148.53 17.20Q148.53 15.52 149.74 14.51Q150.95 13.50 152.95 13.50Q154.98 13.50 156.19 14.51Q157.40 15.52 157.40 17.20Q157.40 18.87 156.19 19.91Q154.98 20.95 152.95 20.95ZM185.55 31.52Q185.55 32.95 184.56 33.92Q183.58 34.90 181.93 34.90Q180.30 34.90 179.46 34.01Q178.63 33.13 178.63 31.67L178.63 30.87Q178.63 29.17 177.58 28.14Q176.53 27.10 174.75 27.10Q173.18 27.10 171.93 28.05Q170.68 29.00 169.95 30.77Q169.23 32.55 169.23 35.02Q169.23 38.15 170.29 40.31Q171.35 42.47 173.23 43.59Q175.10 44.70 177.50 44.70Q179.63 44.70 181.21 43.82Q182.80 42.95 183.73 41.38Q184.15 40.88 184.43 40.70Q184.70 40.52 184.98 40.52Q185.38 40.52 185.55 40.89Q185.73 41.25 185.70 41.72Q185.60 43.85 184.23 45.63Q182.85 47.40 180.54 48.46Q178.23 49.52 175.23 49.52Q171.60 49.52 168.81 48.04Q166.03 46.55 164.44 43.88Q162.85 41.20 162.85 37.57Q162.85 33.90 164.44 30.97Q166.03 28.05 168.90 26.35Q171.78 24.65 175.68 24.65Q178.73 24.65 180.94 25.59Q183.15 26.52 184.35 28.09Q185.55 29.65 185.55 31.52ZM209.30 30.07L217.23 30.07Q218.78 30.07 219.41 29.47Q220.05 28.87 220.38 27.12Q220.53 26.52 220.84 26.22Q221.15 25.92 221.63 25.90Q222.58 25.85 222.85 26.97L224.78 34.40Q224.93 35.05 224.76 35.44Q224.60 35.82 224.08 36Q223.58 36.15 223.14 36Q222.70 35.85 222.40 35.38Q221.73 34.22 221.14 33.61Q220.55 33 219.83 32.77Q219.10 32.55 217.98 32.55L209.30 32.55L209.30 30.07M200.73 15.05Q200.73 14.50 201.10 14.20Q201.48 13.90 202.25 13.90L221.25 13.90Q222.15 13.90 222.74 13.65Q223.33 13.40 223.84 13.15Q224.35 12.90 225.03 12.90Q225.78 12.90 226.16 13.32Q226.55 13.75 226.85 14.72L228.85 21.75Q229.03 22.37 228.83 22.80Q228.63 23.22 228.08 23.40Q227.45 23.60 226.95 23.37Q226.45 23.15 226.13 22.52Q225.18 20.57 224.36 19.36Q223.55 18.15 222.73 17.51Q221.90 16.88 220.94 16.64Q219.98 16.40 218.70 16.40L212.20 16.40L212.20 43.92Q212.20 45.17 212.90 45.79Q213.60 46.40 215.03 46.40L219.43 46.40Q221.13 46.40 222.38 45.84Q223.63 45.27 224.76 43.69Q225.90 42.10 227.28 38.97Q227.53 38.40 227.95 38.20Q228.38 38 228.93 38.07Q229.55 38.17 229.81 38.63Q230.08 39.07 229.90 39.75L227.75 47.98Q227.50 48.92 227.08 49.38Q226.65 49.82 225.83 49.82Q225.25 49.82 224.74 49.59Q224.23 49.35 223.63 49.13Q223.03 48.90 222.15 48.90L202.25 48.90Q201.48 48.90 201.10 48.59Q200.73 48.27 200.73 47.75Q200.73 46.80 201.78 46.48L203.20 46.15Q203.83 45.98 204.14 45.63Q204.45 45.27 204.45 44.73L204.45 18.07Q204.45 17.52 204.14 17.17Q203.83 16.82 203.20 16.65L201.78 16.32Q200.73 16 200.73 15.05ZM242.93 26.35L242.93 44.90Q242.93 45.67 243.15 46.02Q243.38 46.38 243.83 46.55L244.73 46.80Q245.53 47.13 245.53 47.80Q245.53 48.90 244.13 48.90L234.48 48.90Q233.78 48.90 233.45 48.63Q233.13 48.35 233.13 47.88Q233.13 47.50 233.34 47.24Q233.55 46.98 234.03 46.80L235.03 46.55Q235.48 46.38 235.69 46.02Q235.90 45.67 235.90 44.90L235.90 30.57Q235.90 29.92 235.71 29.65Q235.53 29.37 235.10 29.30L233.78 29.20Q233.33 29.10 233.13 28.87Q232.93 28.65 232.93 28.30Q232.93 27.87 233.16 27.62Q233.40 27.37 234.08 27.12L238.73 25.42Q239.68 25.07 240.25 24.92Q240.83 24.77 241.35 24.77Q242.13 24.77 242.53 25.21Q242.93 25.65 242.93 26.35M242.18 31.92L241.03 30.75L242.00 29.87Q245.18 26.97 247.50 25.81Q249.83 24.65 251.90 24.65Q255.13 24.65 257.05 26.70Q258.98 28.75 258.98 32.20L258.98 44.82Q258.98 45.65 259.21 46.01Q259.45 46.38 259.93 46.55L260.78 46.80Q261.55 47.15 261.55 47.80Q261.55 48.90 260.18 48.90L250.70 48.90Q249.30 48.90 249.30 47.80Q249.30 47.13 250.08 46.80L251.03 46.55Q251.53 46.38 251.74 46Q251.95 45.63 251.95 44.82L251.95 33.22Q251.95 31.02 250.91 29.94Q249.88 28.85 248.08 28.85Q246.95 28.85 245.73 29.37Q244.50 29.90 243.18 31.05L242.18 31.92M258.20 31.92L257.08 30.75L258.03 29.87Q261.13 27.07 263.34 25.86Q265.55 24.65 267.55 24.65Q270.63 24.65 272.34 26.71Q274.05 28.77 274.40 32.20L275.80 44.82Q275.90 45.65 276.09 46.02Q276.28 46.40 276.75 46.55L277.63 46.80Q278.10 46.98 278.33 47.24Q278.55 47.50 278.55 47.88Q278.55 48.35 278.23 48.63Q277.90 48.90 277.20 48.90L267.45 48.90Q266.05 48.90 266.05 47.80Q266.05 47.13 266.83 46.80L267.78 46.55Q268.28 46.38 268.53 46Q268.78 45.63 268.70 44.82L267.40 33.22Q267.15 31.05 266.29 29.95Q265.43 28.85 263.73 28.85Q262.73 28.85 261.60 29.41Q260.48 29.97 259.20 31.05L258.20 31.92ZM303.88 34.13Q303.88 35.45 303.13 36.16Q302.38 36.88 300.93 36.88L285.33 36.88L285.33 34.97L295.55 34.97Q296.83 34.97 296.83 33.82Q296.83 30.52 295.63 28.81Q294.43 27.10 292.40 27.10Q290.85 27.10 289.65 28.05Q288.45 29.00 287.78 30.76Q287.10 32.52 287.10 35.02Q287.10 39.85 289.36 42.27Q291.63 44.70 295.40 44.70Q297.60 44.70 299.26 43.82Q300.93 42.95 301.85 41.32Q302.30 40.82 302.56 40.65Q302.83 40.47 303.10 40.47Q303.50 40.47 303.68 40.84Q303.85 41.20 303.85 41.70Q303.75 43.80 302.35 45.59Q300.95 47.38 298.58 48.45Q296.20 49.52 293.13 49.52Q289.50 49.52 286.70 48.04Q283.90 46.55 282.31 43.86Q280.73 41.17 280.73 37.57Q280.73 33.80 282.24 30.87Q283.75 27.95 286.58 26.30Q289.40 24.65 293.33 24.65Q296.68 24.65 299.04 25.86Q301.40 27.07 302.64 29.21Q303.88 31.35 303.88 34.13ZM316.52 35.65Q316.52 32.02 317.55 29.57Q318.57 27.12 320.25 25.89Q321.93 24.65 323.85 24.65Q326.23 24.65 327.52 26.00Q328.82 27.35 328.82 29.87Q328.82 32.13 327.90 33.22Q326.98 34.32 325.50 34.32Q324 34.32 323.23 33.52Q322.45 32.72 322.45 31.30L322.45 30.40Q322.43 29.60 322.07 29.21Q321.73 28.82 320.93 28.82Q320.05 28.82 319.24 29.55Q318.43 30.27 317.91 31.75Q317.40 33.22 317.40 35.52L316.52 35.65M317 26.37L317.40 32.05L317.40 44.88Q317.40 45.60 317.69 45.94Q317.98 46.27 318.73 46.40L320.88 46.73Q321.45 46.82 321.74 47.10Q322.02 47.38 322.02 47.85Q322.02 48.35 321.66 48.63Q321.30 48.90 320.63 48.90L308.95 48.90Q308.25 48.90 307.93 48.63Q307.60 48.35 307.60 47.88Q307.60 47.50 307.82 47.24Q308.05 46.98 308.52 46.80L309.50 46.55Q309.95 46.40 310.16 46.04Q310.38 45.67 310.38 44.90L310.38 30.62Q310.38 29.97 310.19 29.70Q310 29.42 309.57 29.35L308.25 29.25Q307.80 29.15 307.60 28.92Q307.40 28.70 307.40 28.35Q307.40 27.92 307.65 27.67Q307.90 27.42 308.55 27.17L313.10 25.52Q314.32 25.05 314.90 24.91Q315.48 24.77 315.80 24.77Q316.35 24.77 316.63 25.14Q316.90 25.50 317 26.37ZM346.68 45.73L346.68 45.20L346.20 45.10L346.20 30.17Q346.20 28.42 345.31 27.46Q344.43 26.50 342.80 26.50Q341.32 26.50 340.53 27.12Q339.73 27.75 339.73 28.67L339.73 30.87Q339.73 32.38 338.73 33.19Q337.73 34 335.90 34Q334.35 34 333.55 33.26Q332.75 32.52 332.75 31.25Q332.75 29.67 334.05 28.16Q335.35 26.65 337.88 25.66Q340.40 24.67 344.10 24.67Q348.70 24.67 350.94 26.54Q353.18 28.40 353.18 31.57L353.18 44.57Q353.18 45.27 353.46 45.63Q353.75 45.98 354.28 45.98Q354.82 45.98 355.10 45.71Q355.38 45.45 355.57 45.17Q355.70 45 355.85 44.89Q356 44.77 356.23 44.77Q356.53 44.77 356.68 45Q356.82 45.23 356.82 45.60Q356.82 46.45 356.24 47.35Q355.65 48.25 354.49 48.89Q353.32 49.52 351.57 49.52Q349.35 49.52 348.01 48.51Q346.68 47.50 346.68 45.73M331.70 43.67Q331.70 40.55 334.49 38.63Q337.28 36.70 342.28 36.70Q343.90 36.70 345.21 36.97Q346.53 37.25 347.48 37.72L346.93 39.32Q346.07 38.92 345.19 38.70Q344.30 38.47 343.28 38.47Q341.20 38.47 340.04 39.54Q338.88 40.60 338.88 42.47Q338.88 44.35 339.86 45.35Q340.85 46.35 342.43 46.35Q343.78 46.35 345.01 45.74Q346.25 45.13 347.10 44.02L347.65 45.45Q346.28 47.40 343.96 48.46Q341.65 49.52 339.05 49.52Q335.78 49.52 333.74 47.90Q331.70 46.27 331.70 43.67ZM369.38 13.32L369.38 44.90Q369.38 45.67 369.59 46.04Q369.80 46.40 370.25 46.55L371.20 46.80Q371.68 46.95 371.90 47.21Q372.13 47.48 372.13 47.88Q372.13 48.35 371.80 48.63Q371.47 48.90 370.75 48.90L360.90 48.90Q360.20 48.90 359.88 48.63Q359.55 48.35 359.55 47.88Q359.55 47.50 359.77 47.24Q360 46.98 360.47 46.80L361.45 46.55Q361.90 46.38 362.11 46.02Q362.32 45.67 362.32 44.90L362.32 17.52Q362.32 16.90 362.14 16.63Q361.95 16.35 361.52 16.27L360.20 16.17Q359.75 16.05 359.55 15.82Q359.35 15.60 359.35 15.25Q359.35 14.85 359.60 14.60Q359.85 14.35 360.50 14.10L365.15 12.40Q366.15 12.02 366.72 11.88Q367.30 11.72 367.72 11.72Q368.55 11.72 368.96 12.16Q369.38 12.60 369.38 13.32ZM393.52 44.73L393.30 44.60L393.30 17.52Q393.30 16.90 393.11 16.63Q392.92 16.35 392.47 16.27L391.17 16.17Q390.72 16.05 390.52 15.82Q390.32 15.60 390.32 15.25Q390.32 14.85 390.56 14.60Q390.80 14.35 391.47 14.10L396.13 12.40Q397.07 12.05 397.65 11.89Q398.22 11.72 398.75 11.72Q399.52 11.72 399.92 12.16Q400.32 12.60 400.32 13.32L400.32 44.90Q400.32 45.67 400.55 46.04Q400.77 46.40 401.22 46.55L402.17 46.80Q402.65 46.95 402.88 47.21Q403.10 47.48 403.10 47.88Q403.10 48.35 402.76 48.63Q402.42 48.90 401.72 48.90L396.55 48.90Q395.25 48.90 394.39 48.06Q393.52 47.23 393.52 45.88L393.52 44.73M375.30 37.72Q375.30 33.72 376.89 30.79Q378.47 27.85 381.20 26.25Q383.92 24.65 387.30 24.65Q390.27 24.65 392.57 26.04Q394.88 27.42 396.38 30.10L394.65 31.52Q393.42 29.47 391.89 28.47Q390.35 27.47 388.57 27.47Q386.88 27.47 385.52 28.49Q384.17 29.50 383.40 31.59Q382.63 33.67 382.63 36.95Q382.63 40 383.38 42Q384.13 44 385.44 44.99Q386.75 45.98 388.42 45.98Q390.25 45.98 391.82 44.89Q393.40 43.80 394.72 41.55L395.85 42.97Q393.88 46.05 391.29 47.79Q388.70 49.52 385.57 49.52Q382.63 49.52 380.30 48.01Q377.97 46.50 376.64 43.84Q375.30 41.17 375.30 37.72Z"/></g></g></svg>